<svg width="200" height="203" viewBox="0 0 200 203" fill="none" xmlns="http://www.w3.org/2000/svg">
<path d="M197.293 86.9242L197.797 94.1129C198.119 95.5655 198.523 95.3426 198.944 94.344C199.34 93.3371 199.67 91.5048 200 89.7964L197.293 86.9242Z" fill="white"/>
<path d="M15.7591 146.819C14.4389 145.597 13.8777 145.482 16.4605 150.079C15.9489 148.544 15.2145 146.852 15.7591 146.819Z" fill="white"/>
<path d="M15.9407 146.794C15.8335 146.736 15.8251 146.819 15.7591 146.819C16.0066 147.058 16.2708 147.314 16.5844 147.611C16.3698 147.339 16.2048 147.091 15.9407 146.794Z" fill="white"/>
<path d="M21.7335 39.9462L22.8062 38.2048L24.9598 34.6971C26.3213 32.2871 28.0294 30.1247 29.7045 27.9211L26.965 31.3957C26.0655 32.5512 25.3311 33.8552 24.5142 35.0685C22.9299 37.5445 21.2549 39.938 20.0089 42.6038L20.8175 41.8032L21.7252 39.9545L21.7335 39.9462Z" fill="white"/>
<path d="M9.99964 145.086L15.0248 151.664L14.637 150.492C12.8134 149.27 11.6335 146.58 9.99964 145.077V145.086Z" fill="white"/>
<path d="M78.7927 199.863C73.718 199.12 77.7283 201.423 76.0615 202.083C79.9644 199.871 82.4151 203.585 78.7927 199.863Z" fill="white"/>
<path d="M89.6104 200.722C91.434 201.753 92.4572 201.613 93.2576 201.39C94.0663 201.126 94.6686 200.598 95.7496 200.342C92.878 200.061 91.236 200.565 89.6104 200.722Z" fill="white"/>
<path d="M28.9039 47.9437C30.1829 42.2489 31.6599 36.9172 33.2442 31.924C27.3278 38.4441 22.2944 45.7813 18.3832 53.7706C17.756 54.2575 17.1619 54.7115 16.7081 55.1819C16.8649 55.3552 17.2279 55.3717 17.6075 55.4295C16.2625 58.3099 15.066 61.2729 14.0181 64.3101V64.3019C13.6798 65.1685 13.424 65.9938 13.1929 66.7861C13.0774 67.1493 12.9701 67.5207 12.8629 67.8921C12.442 69.2621 12.013 70.5084 11.2538 71.5731C11.1218 72.9431 11.1465 73.6199 11.2703 73.9253C10.9238 75.4439 10.6102 76.9708 10.3379 78.5141C10.2306 78.4646 10.1316 78.4069 10.0243 78.3408C9.05889 77.7218 8.03571 76.36 6.74847 77.7301C6.69896 76.8965 6.64945 76.0299 6.66595 75.155C6.74846 74.2884 6.83097 73.4053 6.90524 72.5305C7.09502 70.7642 7.33432 68.9815 7.56536 67.2896C7.73865 65.5729 8.18424 64.0378 8.48955 62.6595C8.80311 61.2811 9.05064 60.0927 9.17442 59.1848L7.37558 65.317L6.17911 71.5813C5.70052 71.0696 4.67732 73.0339 3.83566 74.3214C3.40658 74.957 3.13429 75.4439 2.87849 75.3118C2.63094 75.1798 2.44941 74.4452 2.63094 72.7203C2.03683 74.2554 1.73978 75.9061 1.40971 77.5815C1.0879 79.257 0.790846 80.9736 0.518545 82.7151C0.180231 84.4483 0.163728 86.231 0.105967 88.0138C0.0564579 89.7965 0.0234512 91.5875 0.0151996 93.3702C-0.0673159 95.1529 0.204987 96.9274 0.37827 98.6771C0.584559 100.427 0.782592 102.152 0.98063 103.86C1.12091 105.56 1.57474 107.203 1.92955 108.812C2.30087 110.413 2.66395 111.973 3.01876 113.484C3.15079 111.676 3.06002 109.431 3.84392 109.687C5.47773 115.795 3.91818 115.365 3.41483 116.826C5.3787 121.234 7.21881 120.21 9.36421 122.505C9.41372 123.099 9.46323 123.668 9.50448 124.205C9.6035 124.725 9.70251 125.22 9.79328 125.69C9.99957 126.631 10.1894 127.473 10.3626 128.241C10.7587 129.784 11.0805 131.055 11.4023 132.285C11.6746 133.539 12.0872 134.686 12.4503 136.081C12.8134 137.476 13.1517 139.094 13.4982 141.231L15.0825 139.853C15.5281 142.841 16.8236 144.046 18.0366 145.284C19.2908 146.514 20.5121 147.776 21.7085 150.665C21.5022 151.218 19.8024 149.526 18.4244 148.123C19.2826 149.212 19.7859 150.079 20.116 150.847C20.4873 151.581 20.7101 152.2 20.9081 152.827C21.3207 154.074 21.758 155.32 23.6972 157.259L19.2826 155.13C20.6358 156.88 22.4264 158.943 23.5156 160.486C24.7121 161.939 25.2072 162.913 23.6972 162.69C25.4465 163.763 27.2701 165.216 29.1514 166.883C30.0591 167.749 31.107 168.542 32.155 169.384C33.1864 170.234 34.2426 171.1 35.3153 171.983C36.3963 172.842 37.3947 173.824 38.5582 174.6C39.5154 175.26 40.4643 175.904 41.405 176.556C19.6704 123.577 22.0964 78.3408 28.9451 47.9767L28.9039 47.9437Z" fill="white"/>
<path d="M52.0166 54.1007C50.9356 59.028 50.0692 63.9718 49.4091 68.9238C53.2543 59.7625 58.131 50.5105 64.0391 41.4566C74.8981 24.8178 87.754 11.0843 101.031 1.03992C100.049 1.05642 99.0669 1.08944 98.0932 1.13896C98.8936 0.96564 99.826 0.833589 100.841 0.709789C101.08 0.685029 101.336 0.652011 101.584 0.62725C101.864 0.412663 102.153 0.206334 102.434 0C98.0355 0.272361 93.3486 0.618999 88.769 1.51861C86.7886 1.90652 84.7917 2.12111 82.9104 2.67409C81.029 3.22706 79.2054 3.78829 77.4643 4.35777C76.6062 4.65489 75.7563 4.94376 74.9394 5.23262C74.9064 5.24913 74.8734 5.26564 74.8404 5.28214C73.223 5.7856 71.6222 6.33857 70.0462 6.93281C64.856 15.9372 56.8272 32.2871 52.0248 54.109L52.0166 54.1007Z" fill="white"/>
<path d="M66.135 189.695C66.4733 189.736 66.7869 189.753 67.0922 189.761L67.0262 189.613C66.7539 189.662 66.4486 189.687 66.135 189.695Z" fill="white"/>
<path d="M62.8672 143.889C57.8668 136.23 53.6172 128.439 50.0938 120.672C52.0907 133.382 55.4243 146.126 60.1029 158.885C60.1772 159.092 60.2515 159.298 60.3257 159.496C61.7863 163.449 63.3871 167.411 65.1034 171.364C65.2684 171.736 65.4252 172.107 65.5902 172.479C66.4484 174.418 67.3231 176.366 68.2472 178.306C68.272 178.355 68.2967 178.405 68.3132 178.446C69.1879 180.295 70.0956 182.135 71.028 183.984C71.2673 184.454 71.4983 184.916 71.7376 185.387C72.7031 187.285 73.6932 189.175 74.7247 191.065L72.9176 191.04C73.1816 191.057 73.4457 191.082 73.718 191.09L78.6937 191.156C82.836 192.435 80.8638 194.655 81.3507 194.02C83.7271 194.499 86.0376 194.598 88.183 194.911C90.3366 195.134 92.35 195.555 94.2974 195.58C96.2282 195.695 98.0601 195.836 99.7846 196.025C101.517 196.224 103.16 196.496 104.719 196.587C105.486 195.373 108.366 194.482 111.997 193.805C112.583 193.706 113.193 193.566 113.812 193.417C95.7744 183.489 77.4972 166.322 62.859 143.897L62.8672 143.889Z" fill="white"/>
<path d="M195.651 79.2982C196.113 78.935 196.567 78.6709 197.045 79.0671C196.377 77.8126 195.849 76.5416 195.065 75.3448L194.809 74.9487C187.251 40.3671 160.697 12.8999 126.635 4.04408C109.686 11.6372 92.0858 24.7022 76.7214 42.2736C63.4116 57.5011 53.6665 73.9583 47.8822 89.6726C47.8327 92.8007 47.8904 95.9287 48.006 99.0567C53.9058 113.731 63.1805 128.926 75.5414 143.064C95.3533 165.727 118.895 180.905 139.953 186.476C143.699 184.991 147.379 183.274 150.944 181.334C159.476 176.572 167.059 170.176 173.562 163.053C175.113 161.204 176.656 159.356 178.199 157.515C179.593 155.559 180.905 153.562 182.234 151.598C183.637 149.683 184.676 147.545 185.79 145.482C186.863 143.394 188.076 141.405 188.868 139.218C189.735 137.08 190.593 134.951 191.451 132.846C192.144 130.675 192.738 128.496 193.365 126.351C193.654 125.269 194.017 124.221 194.24 123.14C194.438 122.051 194.628 120.969 194.826 119.888C195.181 117.726 195.651 115.621 195.874 113.5C196.064 112.105 196.072 110.529 195.998 108.87C196.658 104.38 197.004 99.7913 197.004 95.1199C197.004 89.7222 196.526 84.44 195.651 79.2899V79.2982ZM195.337 77.5485C195.28 77.2431 195.23 76.9295 195.172 76.6241C195.238 76.7809 195.313 76.9377 195.379 77.0945C195.37 77.2679 195.354 77.3916 195.346 77.5485H195.337Z" fill="white"/>
</svg>
